<?xml version="1.0" encoding="us-ascii" standalone="no"?><svg xmlns="http://www.w3.org/2000/svg" xmlns:xlink="http://www.w3.org/1999/xlink" contentStyleType="text/css" height="371px" preserveAspectRatio="none" style="width:619px;height:371px;background:#FFFFFF;" version="1.1" viewBox="0 0 619 371" width="619px" zoomAndPan="magnify"><defs/><g><!--class global--><g id="elem_global"><rect codeLine="1" fill="#F1F1F1" height="357.6406" id="global" rx="2.5" ry="2.5" style="stroke:#181818;stroke-width:0.5;" width="287" x="7" y="7"/><ellipse cx="124.25" cy="23" fill="#ADD1B2" rx="11" ry="11" style="stroke:#181818;stroke-width:1.0;"/><path d="M126.5938,18.6719 C125.6563,18.2344 125.0625,18.0938 124.1875,18.0938 C121.5625,18.0938 119.5625,20.1719 119.5625,22.8906 L119.5625,24.0156 C119.5625,26.5938 121.6719,28.4844 124.5625,28.4844 C125.7813,28.4844 126.9375,28.1875 127.6875,27.6406 C128.2656,27.2344 128.5938,26.7813 128.5938,26.3906 C128.5938,25.9375 128.2031,25.5469 127.7344,25.5469 C127.5156,25.5469 127.3125,25.625 127.125,25.8125 C126.6719,26.2969 126.6719,26.2969 126.4844,26.3906 C126.0625,26.6563 125.375,26.7813 124.6094,26.7813 C122.5625,26.7813 121.2656,25.6875 121.2656,23.9844 L121.2656,22.8906 C121.2656,21.1094 122.5156,19.7969 124.25,19.7969 C124.8281,19.7969 125.4375,19.9531 125.9063,20.2031 C126.3906,20.4844 126.5625,20.7031 126.6563,21.1094 C126.7188,21.5156 126.75,21.6406 126.8906,21.7656 C127.0313,21.9063 127.2656,22.0156 127.4844,22.0156 C127.75,22.0156 128.0156,21.875 128.1875,21.6563 C128.2969,21.5 128.3281,21.3125 128.3281,20.8906 L128.3281,19.4688 C128.3281,19.0313 128.3125,18.9063 128.2188,18.75 C128.0625,18.4844 127.7813,18.3438 127.4844,18.3438 C127.1875,18.3438 126.9844,18.4375 126.7656,18.75 L126.5938,18.6719 Z " fill="#000000"/><text fill="#000000" font-family="sans-serif" font-size="14" lengthAdjust="spacing" textLength="44" x="144.75" y="27.8467">global</text><line style="stroke:#181818;stroke-width:0.5;" x1="8" x2="293" y1="39" y2="39"/><rect fill="none" height="6" style="stroke:#C82930;stroke-width:1.0;" width="6" x="15" y="49.6484"/><text fill="#000000" font-family="sans-serif" font-size="14" lengthAdjust="spacing" textLength="172" x="27" y="55.9951">step : float = 1 #month</text><rect fill="none" height="6" style="stroke:#C82930;stroke-width:1.0;" width="6" x="15" y="65.9453"/><text fill="#000000" font-family="sans-serif" font-size="14" lengthAdjust="spacing" textLength="152" x="27" y="72.292">n_sheperds : int = 10</text><rect fill="none" height="6" style="stroke:#C82930;stroke-width:1.0;" width="6" x="15" y="82.2422"/><text fill="#000000" font-family="sans-serif" font-size="14" lengthAdjust="spacing" textLength="224" x="27" y="88.5889">n_goats_per_sheperd : int = 10</text><rect fill="none" height="6" style="stroke:#C82930;stroke-width:1.0;" width="6" x="15" y="98.5391"/><text fill="#000000" font-family="sans-serif" font-size="14" lengthAdjust="spacing" textLength="261" x="27" y="104.8857">eating_season_month_end : int = 10</text><rect fill="none" height="6" style="stroke:#C82930;stroke-width:1.0;" width="6" x="15" y="114.8359"/><text fill="#000000" font-family="sans-serif" font-size="14" lengthAdjust="spacing" textLength="251" x="27" y="121.1826">n_months_to_full_growth : int = 50</text><rect fill="none" height="6" style="stroke:#C82930;stroke-width:1.0;" width="6" x="15" y="131.1328"/><text fill="#000000" font-family="sans-serif" font-size="14" lengthAdjust="spacing" textLength="243" x="27" y="137.4795">min_seed_take_root_proba : float</text><rect fill="none" height="6" style="stroke:#C82930;stroke-width:1.0;" width="6" x="15" y="147.4297"/><text fill="#000000" font-family="sans-serif" font-size="14" lengthAdjust="spacing" textLength="175" x="27" y="153.7764">max_fringe_size : int = 8</text><rect fill="none" height="6" style="stroke:#C82930;stroke-width:1.0;" width="6" x="15" y="163.7266"/><text fill="#000000" font-family="sans-serif" font-size="14" lengthAdjust="spacing" textLength="172" x="27" y="170.0732">min_fringe_size : int = 4</text><rect fill="none" height="6" style="stroke:#C82930;stroke-width:1.0;" width="6" x="15" y="180.0234"/><text fill="#000000" font-family="sans-serif" font-size="14" lengthAdjust="spacing" textLength="198" x="27" y="186.3701">tree_init_cover : float = 0.3</text><rect fill="none" height="6" style="stroke:#C82930;stroke-width:1.0;" width="6" x="15" y="196.3203"/><text fill="#000000" font-family="sans-serif" font-size="14" lengthAdjust="spacing" textLength="189" x="27" y="202.667">goat_move_range : int = 5</text><rect fill="none" height="6" style="stroke:#C82930;stroke-width:1.0;" width="6" x="15" y="212.6172"/><text fill="#000000" font-family="sans-serif" font-size="14" lengthAdjust="spacing" textLength="221" x="27" y="218.9639">threshold_to_eat : float = 0.05</text><rect fill="none" height="6" style="stroke:#C82930;stroke-width:1.0;" width="6" x="15" y="228.9141"/><text fill="#000000" font-family="sans-serif" font-size="14" lengthAdjust="spacing" textLength="189" x="27" y="235.2607">n_respectful_sheperd : int</text><rect fill="none" height="6" style="stroke:#C82930;stroke-width:1.0;" width="6" x="15" y="245.2109"/><text fill="#000000" font-family="sans-serif" font-size="14" lengthAdjust="spacing" textLength="209" x="27" y="251.5576">n_disrespectful_sheperd : int</text><rect fill="none" height="6" style="stroke:#C82930;stroke-width:1.0;" width="6" x="15" y="261.5078"/><text fill="#000000" font-family="sans-serif" font-size="14" lengthAdjust="spacing" textLength="160" x="27" y="267.8545">global_min_size : float</text><rect fill="none" height="6" style="stroke:#C82930;stroke-width:1.0;" width="6" x="15" y="277.8047"/><text fill="#000000" font-family="sans-serif" font-size="14" lengthAdjust="spacing" textLength="155" x="27" y="284.1514">avg_grove_size : float</text><rect fill="none" height="6" style="stroke:#C82930;stroke-width:1.0;" width="6" x="15" y="294.1016"/><text fill="#000000" font-family="sans-serif" font-size="14" lengthAdjust="spacing" textLength="110" x="27" y="300.4482">tree_cov : float</text><line style="stroke:#181818;stroke-width:0.5;" x1="8" x2="293" y1="307.75" y2="307.75"/><ellipse cx="18" cy="321.3984" fill="#84BE84" rx="3" ry="3" style="stroke:#038048;stroke-width:1.0;"/><text fill="#000000" font-family="sans-serif" font-size="14" lengthAdjust="spacing" textLength="34" x="27" y="324.7451">init()</text><ellipse cx="18" cy="337.6953" fill="#84BE84" rx="3" ry="3" style="stroke:#038048;stroke-width:1.0;"/><text fill="#000000" font-family="sans-serif" font-size="14" lengthAdjust="spacing" textLength="145" x="27" y="341.042">save_result() : reflex</text><ellipse cx="18" cy="353.9922" fill="#84BE84" rx="3" ry="3" style="stroke:#038048;stroke-width:1.0;"/><text fill="#000000" font-family="sans-serif" font-size="14" lengthAdjust="spacing" textLength="179" x="27" y="357.3389">stop_simulation() : reflex</text></g><path d="M329,153.5 L329,177.1992 L248,214.1172 L329,185.1992 L329,208.8984 A0,0 0 0 0 329,208.8984 L612,208.8984 A0,0 0 0 0 612,208.8984 L612,163.5 L602,153.5 L329,153.5 A0,0 0 0 0 329,153.5 " fill="#FEFFDD" style="stroke:#181818;stroke-width:0.5;"/><path d="M602,153.5 L602,163.5 L612,163.5 L602,153.5 " fill="#FEFFDD" style="stroke:#181818;stroke-width:0.5;"/><text fill="#000000" font-family="sans-serif" font-size="13" lengthAdjust="spacing" textLength="262" x="335" y="170.5669">This is to make sure the goats can move</text><text fill="#000000" font-family="sans-serif" font-size="13" lengthAdjust="spacing" textLength="236" x="335" y="185.6997">when the amount of tree available is</text><text fill="#000000" font-family="sans-serif" font-size="13" lengthAdjust="spacing" textLength="99" x="335" y="200.8325">very close to 0.</text><!--SRC=[XPBHJeGm44NV-Of9VD4ODnZTn6pYN_ZUT66WpPOEwHHsrVZlJhk0h6uYuONUmsNk7IgdcQ5rjDSEFWkGwm4uOWyxQ1pf2A_m23ST-MWcrIiss6EeMHZhCr4kMYlli19vflv2gAFrhMBKJ5vbQuM-lkQMHLQHL3Cufzf0nsWMS3k3dPMX46iLzG5L88gg3n9f3Z5Z-gIQ8Dz6nVO35v-NbSqr_NdIOq1KrjkeAXenh2egDqyJa_BBsAECeSNePzRPmmHaGwvEeQI92vDokoGNgiSgIkpB8XUWjlmFSzwgokMSuwpBq6ER-XpncfYJIiZbE9_VGmf_UpSzi4ufaGSdPq86R1oUPZ5IByxTu6JRvDV0Lr5uYWZ1jYO2DTEWkztlRiJgpLW6kIF9zWu8F0IK3Z7tp51f3wbi8Oy6VLPqHuFFlYc5vDJMwRr3iH5CzlOEbIF6v5bkYlJdfN6-0G00]--></g></svg>