<?xml version="1.0" encoding="us-ascii" standalone="no"?><svg xmlns="http://www.w3.org/2000/svg" xmlns:xlink="http://www.w3.org/1999/xlink" contentStyleType="text/css" height="199px" preserveAspectRatio="none" style="width:246px;height:199px;background:#FFFFFF;" version="1.1" viewBox="0 0 246 199" width="246px" zoomAndPan="magnify"><defs/><g><!--class shepherd--><g id="elem_shepherd"><rect codeLine="1" fill="#F1F1F1" height="178.375" id="shepherd" rx="2.5" ry="2.5" style="stroke:#181818;stroke-width:0.5;" width="225" x="7" y="7"/><ellipse cx="81.25" cy="23" fill="#ADD1B2" rx="11" ry="11" style="stroke:#181818;stroke-width:1.0;"/><path d="M83.5938,18.6719 C82.6563,18.2344 82.0625,18.0938 81.1875,18.0938 C78.5625,18.0938 76.5625,20.1719 76.5625,22.8906 L76.5625,24.0156 C76.5625,26.5938 78.6719,28.4844 81.5625,28.4844 C82.7813,28.4844 83.9375,28.1875 84.6875,27.6406 C85.2656,27.2344 85.5938,26.7813 85.5938,26.3906 C85.5938,25.9375 85.2031,25.5469 84.7344,25.5469 C84.5156,25.5469 84.3125,25.625 84.125,25.8125 C83.6719,26.2969 83.6719,26.2969 83.4844,26.3906 C83.0625,26.6563 82.375,26.7813 81.6094,26.7813 C79.5625,26.7813 78.2656,25.6875 78.2656,23.9844 L78.2656,22.8906 C78.2656,21.1094 79.5156,19.7969 81.25,19.7969 C81.8281,19.7969 82.4375,19.9531 82.9063,20.2031 C83.3906,20.4844 83.5625,20.7031 83.6563,21.1094 C83.7188,21.5156 83.75,21.6406 83.8906,21.7656 C84.0313,21.9063 84.2656,22.0156 84.4844,22.0156 C84.75,22.0156 85.0156,21.875 85.1875,21.6563 C85.2969,21.5 85.3281,21.3125 85.3281,20.8906 L85.3281,19.4688 C85.3281,19.0313 85.3125,18.9063 85.2188,18.75 C85.0625,18.4844 84.7813,18.3438 84.4844,18.3438 C84.1875,18.3438 83.9844,18.4375 83.7656,18.75 L83.5938,18.6719 Z " fill="#000000"/><text fill="#000000" font-family="sans-serif" font-size="14" lengthAdjust="spacing" textLength="68" x="101.75" y="27.8467">shepherd</text><line style="stroke:#181818;stroke-width:0.5;" x1="8" x2="231" y1="39" y2="39"/><rect fill="none" height="6" style="stroke:#C82930;stroke-width:1.0;" width="6" x="15" y="49.6484"/><text fill="#000000" font-family="sans-serif" font-size="14" lengthAdjust="spacing" textLength="95" x="27" y="55.9951">min_size : int</text><rect fill="none" height="6" style="stroke:#C82930;stroke-width:1.0;" width="6" x="15" y="65.9453"/><text fill="#000000" font-family="sans-serif" font-size="14" lengthAdjust="spacing" textLength="114" x="27" y="72.292">herd_color : rgb</text><rect fill="none" height="6" style="stroke:#C82930;stroke-width:1.0;" width="6" x="15" y="82.2422"/><text fill="#000000" font-family="sans-serif" font-size="14" lengthAdjust="spacing" textLength="130" x="27" y="88.5889">goats : list&lt;goat&gt;</text><rect fill="none" height="6" style="stroke:#C82930;stroke-width:1.0;" width="6" x="15" y="98.5391"/><text fill="#000000" font-family="sans-serif" font-size="14" lengthAdjust="spacing" textLength="137" x="27" y="104.8857">is_respectful : bool</text><rect fill="none" height="6" style="stroke:#C82930;stroke-width:1.0;" width="6" x="15" y="114.8359"/><text fill="#000000" font-family="sans-serif" font-size="14" lengthAdjust="spacing" textLength="186" x="27" y="121.1826">unique_months : list&lt;int&gt;</text><line style="stroke:#181818;stroke-width:0.5;" x1="8" x2="231" y1="128.4844" y2="128.4844"/><ellipse cx="18" cy="142.1328" fill="#84BE84" rx="3" ry="3" style="stroke:#038048;stroke-width:1.0;"/><text fill="#000000" font-family="sans-serif" font-size="14" lengthAdjust="spacing" textLength="34" x="27" y="145.4795">init()</text><ellipse cx="18" cy="158.4297" fill="#84BE84" rx="3" ry="3" style="stroke:#038048;stroke-width:1.0;"/><text fill="#000000" font-family="sans-serif" font-size="14" lengthAdjust="spacing" textLength="163" x="27" y="161.7764">check_month() : reflex</text><ellipse cx="18" cy="174.7266" fill="#84BE84" rx="3" ry="3" style="stroke:#038048;stroke-width:1.0;"/><text fill="#000000" font-family="sans-serif" font-size="14" lengthAdjust="spacing" textLength="199" x="27" y="178.0732">compute_min_size() : reflex</text></g><!--SRC=[JOv13i8m30JlVKMEhH0VGAXVYThWDXP9N697GaNy7GS2mhVT7NljmiHisCFc8L_CepCwHnCnMSOTpCbWacPMmZeAbDNEwzpibIPXTGAodAiOMu1iC_06JfOI59Y9GejAmbi16oc9_-rgqzYzWOEselH34yw3ktxWVgZTi0IuVqEAMn6zrLx-9vul]--></g></svg>