<?xml version="1.0" encoding="us-ascii" standalone="no"?><svg xmlns="http://www.w3.org/2000/svg" xmlns:xlink="http://www.w3.org/1999/xlink" contentStyleType="text/css" height="420px" preserveAspectRatio="none" style="width:980px;height:420px;background:#FFFFFF;" version="1.1" viewBox="0 0 980 420" width="980px" zoomAndPan="magnify"><defs/><g><ellipse cx="580.5" cy="20" fill="#222222" rx="10" ry="10" style="stroke:#222222;stroke-width:1.0;"/><polygon fill="#F1F1F1" points="484.5,98.4023,676.5,98.4023,688.5,110.4023,676.5,122.4023,484.5,122.4023,472.5,110.4023,484.5,98.4023" style="stroke:#181818;stroke-width:0.5;"/><text fill="#000000" font-family="sans-serif" font-size="11" lengthAdjust="spacing" textLength="192" x="484.5" y="114.2104">my_cell.tree &lt;= threshold_to_eat</text><text fill="#000000" font-family="sans-serif" font-size="11" lengthAdjust="spacing" textLength="21" x="451.5" y="107.8081">yes</text><text fill="#000000" font-family="sans-serif" font-size="11" lengthAdjust="spacing" textLength="14" x="688.5" y="107.8081">no</text><polygon fill="#F1F1F1" points="185.5,132.4023,288.5,132.4023,300.5,144.4023,288.5,156.4023,185.5,156.4023,173.5,144.4023,185.5,132.4023" style="stroke:#181818;stroke-width:0.5;"/><text fill="#000000" font-family="sans-serif" font-size="11" lengthAdjust="spacing" textLength="103" x="185.5" y="148.2104">has_no_regulation</text><text fill="#000000" font-family="sans-serif" font-size="11" lengthAdjust="spacing" textLength="21" x="152.5" y="141.8081">yes</text><text fill="#000000" font-family="sans-serif" font-size="11" lengthAdjust="spacing" textLength="14" x="300.5" y="141.8081">no</text><rect fill="#F1F1F1" height="33.9688" rx="12.5" ry="12.5" style="stroke:#181818;stroke-width:0.5;" width="74" x="11" y="166.4023"/><text fill="#000000" font-family="sans-serif" font-size="12" lengthAdjust="spacing" textLength="54" x="21" y="187.541">do move</text><polygon fill="#F1F1F1" points="409,166.4023,503,166.4023,515,178.4023,503,190.4023,409,190.4023,397,178.4023,409,166.4023" style="stroke:#181818;stroke-width:0.5;"/><text fill="#000000" font-family="sans-serif" font-size="11" lengthAdjust="spacing" textLength="94" x="409" y="182.2104">not is_respectful</text><text fill="#000000" font-family="sans-serif" font-size="11" lengthAdjust="spacing" textLength="21" x="376" y="175.8081">yes</text><text fill="#000000" font-family="sans-serif" font-size="11" lengthAdjust="spacing" textLength="14" x="515" y="175.8081">no</text><polygon fill="#F1F1F1" points="154,200.4023,371,200.4023,383,212.4023,371,224.4023,154,224.4023,142,212.4023,154,200.4023" style="stroke:#181818;stroke-width:0.5;"/><text fill="#000000" font-family="sans-serif" font-size="11" lengthAdjust="spacing" textLength="217" x="154" y="216.2104">my_cell.current_size &lt; herd_min_size</text><text fill="#000000" font-family="sans-serif" font-size="11" lengthAdjust="spacing" textLength="21" x="121" y="209.8081">yes</text><text fill="#000000" font-family="sans-serif" font-size="11" lengthAdjust="spacing" textLength="14" x="383" y="209.8081">no</text><rect fill="#F1F1F1" height="33.9688" rx="12.5" ry="12.5" style="stroke:#181818;stroke-width:0.5;" width="74" x="95" y="234.4023"/><text fill="#000000" font-family="sans-serif" font-size="12" lengthAdjust="spacing" textLength="54" x="105" y="255.541">do move</text><rect fill="#F1F1F1" height="33.9688" rx="12.5" ry="12.5" style="stroke:#181818;stroke-width:0.5;" width="90" x="348" y="234.4023"/><text fill="#000000" font-family="sans-serif" font-size="12" lengthAdjust="spacing" textLength="70" x="358" y="255.541">do eat_tree</text><polygon fill="#F1F1F1" points="262.5,274.3711,274.5,286.3711,262.5,298.3711,250.5,286.3711,262.5,274.3711" style="stroke:#181818;stroke-width:0.5;"/><polygon fill="#F1F1F1" points="537,200.4023,762,200.4023,774,212.4023,762,224.4023,537,224.4023,525,212.4023,537,200.4023" style="stroke:#181818;stroke-width:0.5;"/><text fill="#000000" font-family="sans-serif" font-size="11" lengthAdjust="spacing" textLength="225" x="537" y="216.2104">my_cell.current_size &lt; global_min_size</text><text fill="#000000" font-family="sans-serif" font-size="11" lengthAdjust="spacing" textLength="21" x="504" y="209.8081">yes</text><text fill="#000000" font-family="sans-serif" font-size="11" lengthAdjust="spacing" textLength="14" x="774" y="209.8081">no</text><rect fill="#F1F1F1" height="33.9688" rx="12.5" ry="12.5" style="stroke:#181818;stroke-width:0.5;" width="74" x="478" y="234.4023"/><text fill="#000000" font-family="sans-serif" font-size="12" lengthAdjust="spacing" textLength="54" x="488" y="255.541">do move</text><rect fill="#F1F1F1" height="33.9688" rx="12.5" ry="12.5" style="stroke:#181818;stroke-width:0.5;" width="90" x="739" y="234.4023"/><text fill="#000000" font-family="sans-serif" font-size="12" lengthAdjust="spacing" textLength="70" x="749" y="255.541">do eat_tree</text><polygon fill="#F1F1F1" points="649.5,274.3711,661.5,286.3711,649.5,298.3711,637.5,286.3711,649.5,274.3711" style="stroke:#181818;stroke-width:0.5;"/><polygon fill="#F1F1F1" points="456,304.3711,468,316.3711,456,328.3711,444,316.3711,456,304.3711" style="stroke:#181818;stroke-width:0.5;"/><polygon fill="#F1F1F1" points="237,334.3711,249,346.3711,237,358.3711,225,346.3711,237,334.3711" style="stroke:#181818;stroke-width:0.5;"/><rect fill="#F1F1F1" height="33.9688" rx="12.5" ry="12.5" style="stroke:#181818;stroke-width:0.5;" width="90" x="879" y="132.4023"/><text fill="#000000" font-family="sans-serif" font-size="12" lengthAdjust="spacing" textLength="70" x="889" y="153.541">do eat_tree</text><polygon fill="#F1F1F1" points="580.5,364.3711,592.5,376.3711,580.5,388.3711,568.5,376.3711,580.5,364.3711" style="stroke:#181818;stroke-width:0.5;"/><polygon fill="#F1F1F1" points="435.5,50,725.5,50,737.5,62,725.5,74,435.5,74,423.5,62,435.5,50" style="stroke:#181818;stroke-width:0.5;"/><text fill="#000000" font-family="sans-serif" font-size="11" lengthAdjust="spacing" textLength="21" x="584.5" y="84.2104">yes</text><text fill="#000000" font-family="sans-serif" font-size="11" lengthAdjust="spacing" textLength="290" x="435.5" y="65.8081">current_date.month &lt;= eating_season_month_end</text><text fill="#000000" font-family="sans-serif" font-size="11" lengthAdjust="spacing" textLength="110" x="737.5" y="59.4058">not grazing months</text><ellipse cx="869.5" cy="62" fill="none" rx="11" ry="11" style="stroke:#222222;stroke-width:1.0;"/><ellipse cx="869.5" cy="62" fill="#222222" rx="6" ry="6" style="stroke:#222222;stroke-width:1.0;"/><line style="stroke:#181818;stroke-width:1.0;" x1="142" x2="132" y1="212.4023" y2="212.4023"/><line style="stroke:#181818;stroke-width:1.0;" x1="132" x2="132" y1="212.4023" y2="234.4023"/><polygon fill="#181818" points="128,224.4023,132,234.4023,136,224.4023,132,228.4023" style="stroke:#181818;stroke-width:1.0;"/><line style="stroke:#181818;stroke-width:1.0;" x1="383" x2="393" y1="212.4023" y2="212.4023"/><line style="stroke:#181818;stroke-width:1.0;" x1="393" x2="393" y1="212.4023" y2="234.4023"/><polygon fill="#181818" points="389,224.4023,393,234.4023,397,224.4023,393,228.4023" style="stroke:#181818;stroke-width:1.0;"/><line style="stroke:#181818;stroke-width:1.0;" x1="132" x2="132" y1="268.3711" y2="286.3711"/><line style="stroke:#181818;stroke-width:1.0;" x1="132" x2="250.5" y1="286.3711" y2="286.3711"/><polygon fill="#181818" points="240.5,282.3711,250.5,286.3711,240.5,290.3711,244.5,286.3711" style="stroke:#181818;stroke-width:1.0;"/><line style="stroke:#181818;stroke-width:1.0;" x1="393" x2="393" y1="268.3711" y2="286.3711"/><line style="stroke:#181818;stroke-width:1.0;" x1="393" x2="274.5" y1="286.3711" y2="286.3711"/><polygon fill="#181818" points="284.5,282.3711,274.5,286.3711,284.5,290.3711,280.5,286.3711" style="stroke:#181818;stroke-width:1.0;"/><line style="stroke:#181818;stroke-width:1.0;" x1="525" x2="515" y1="212.4023" y2="212.4023"/><line style="stroke:#181818;stroke-width:1.0;" x1="515" x2="515" y1="212.4023" y2="234.4023"/><polygon fill="#181818" points="511,224.4023,515,234.4023,519,224.4023,515,228.4023" style="stroke:#181818;stroke-width:1.0;"/><line style="stroke:#181818;stroke-width:1.0;" x1="774" x2="784" y1="212.4023" y2="212.4023"/><line style="stroke:#181818;stroke-width:1.0;" x1="784" x2="784" y1="212.4023" y2="234.4023"/><polygon fill="#181818" points="780,224.4023,784,234.4023,788,224.4023,784,228.4023" style="stroke:#181818;stroke-width:1.0;"/><line style="stroke:#181818;stroke-width:1.0;" x1="515" x2="515" y1="268.3711" y2="286.3711"/><line style="stroke:#181818;stroke-width:1.0;" x1="515" x2="637.5" y1="286.3711" y2="286.3711"/><polygon fill="#181818" points="627.5,282.3711,637.5,286.3711,627.5,290.3711,631.5,286.3711" style="stroke:#181818;stroke-width:1.0;"/><line style="stroke:#181818;stroke-width:1.0;" x1="784" x2="784" y1="268.3711" y2="286.3711"/><line style="stroke:#181818;stroke-width:1.0;" x1="784" x2="661.5" y1="286.3711" y2="286.3711"/><polygon fill="#181818" points="671.5,282.3711,661.5,286.3711,671.5,290.3711,667.5,286.3711" style="stroke:#181818;stroke-width:1.0;"/><line style="stroke:#181818;stroke-width:1.0;" x1="397" x2="262.5" y1="178.4023" y2="178.4023"/><line style="stroke:#181818;stroke-width:1.0;" x1="262.5" x2="262.5" y1="178.4023" y2="200.4023"/><polygon fill="#181818" points="258.5,190.4023,262.5,200.4023,266.5,190.4023,262.5,194.4023" style="stroke:#181818;stroke-width:1.0;"/><line style="stroke:#181818;stroke-width:1.0;" x1="515" x2="649.5" y1="178.4023" y2="178.4023"/><line style="stroke:#181818;stroke-width:1.0;" x1="649.5" x2="649.5" y1="178.4023" y2="200.4023"/><polygon fill="#181818" points="645.5,190.4023,649.5,200.4023,653.5,190.4023,649.5,194.4023" style="stroke:#181818;stroke-width:1.0;"/><line style="stroke:#181818;stroke-width:1.0;" x1="262.5" x2="262.5" y1="298.3711" y2="316.3711"/><line style="stroke:#181818;stroke-width:1.0;" x1="262.5" x2="444" y1="316.3711" y2="316.3711"/><polygon fill="#181818" points="434,312.3711,444,316.3711,434,320.3711,438,316.3711" style="stroke:#181818;stroke-width:1.0;"/><line style="stroke:#181818;stroke-width:1.0;" x1="649.5" x2="649.5" y1="298.3711" y2="316.3711"/><line style="stroke:#181818;stroke-width:1.0;" x1="649.5" x2="468" y1="316.3711" y2="316.3711"/><polygon fill="#181818" points="478,312.3711,468,316.3711,478,320.3711,474,316.3711" style="stroke:#181818;stroke-width:1.0;"/><line style="stroke:#181818;stroke-width:1.0;" x1="173.5" x2="48" y1="144.4023" y2="144.4023"/><line style="stroke:#181818;stroke-width:1.0;" x1="48" x2="48" y1="144.4023" y2="166.4023"/><polygon fill="#181818" points="44,156.4023,48,166.4023,52,156.4023,48,160.4023" style="stroke:#181818;stroke-width:1.0;"/><line style="stroke:#181818;stroke-width:1.0;" x1="300.5" x2="456" y1="144.4023" y2="144.4023"/><line style="stroke:#181818;stroke-width:1.0;" x1="456" x2="456" y1="144.4023" y2="166.4023"/><polygon fill="#181818" points="452,156.4023,456,166.4023,460,156.4023,456,160.4023" style="stroke:#181818;stroke-width:1.0;"/><line style="stroke:#181818;stroke-width:1.0;" x1="48" x2="48" y1="200.3711" y2="346.3711"/><line style="stroke:#181818;stroke-width:1.0;" x1="48" x2="225" y1="346.3711" y2="346.3711"/><polygon fill="#181818" points="215,342.3711,225,346.3711,215,350.3711,219,346.3711" style="stroke:#181818;stroke-width:1.0;"/><line style="stroke:#181818;stroke-width:1.0;" x1="456" x2="456" y1="328.3711" y2="346.3711"/><line style="stroke:#181818;stroke-width:1.0;" x1="456" x2="249" y1="346.3711" y2="346.3711"/><polygon fill="#181818" points="259,342.3711,249,346.3711,259,350.3711,255,346.3711" style="stroke:#181818;stroke-width:1.0;"/><line style="stroke:#181818;stroke-width:1.0;" x1="472.5" x2="237" y1="110.4023" y2="110.4023"/><line style="stroke:#181818;stroke-width:1.0;" x1="237" x2="237" y1="110.4023" y2="132.4023"/><polygon fill="#181818" points="233,122.4023,237,132.4023,241,122.4023,237,126.4023" style="stroke:#181818;stroke-width:1.0;"/><line style="stroke:#181818;stroke-width:1.0;" x1="688.5" x2="924" y1="110.4023" y2="110.4023"/><line style="stroke:#181818;stroke-width:1.0;" x1="924" x2="924" y1="110.4023" y2="132.4023"/><polygon fill="#181818" points="920,122.4023,924,132.4023,928,122.4023,924,126.4023" style="stroke:#181818;stroke-width:1.0;"/><line style="stroke:#181818;stroke-width:1.0;" x1="237" x2="237" y1="358.3711" y2="376.3711"/><line style="stroke:#181818;stroke-width:1.0;" x1="237" x2="568.5" y1="376.3711" y2="376.3711"/><polygon fill="#181818" points="558.5,372.3711,568.5,376.3711,558.5,380.3711,562.5,376.3711" style="stroke:#181818;stroke-width:1.0;"/><line style="stroke:#181818;stroke-width:1.0;" x1="924" x2="924" y1="166.3711" y2="376.3711"/><line style="stroke:#181818;stroke-width:1.0;" x1="924" x2="592.5" y1="376.3711" y2="376.3711"/><polygon fill="#181818" points="602.5,372.3711,592.5,376.3711,602.5,380.3711,598.5,376.3711" style="stroke:#181818;stroke-width:1.0;"/><line style="stroke:#181818;stroke-width:1.0;" x1="580.5" x2="580.5" y1="74" y2="98.4023"/><polygon fill="#181818" points="576.5,88.4023,580.5,98.4023,584.5,88.4023,580.5,92.4023" style="stroke:#181818;stroke-width:1.0;"/><line style="stroke:#181818;stroke-width:1.0;" x1="737.5" x2="858.5" y1="62" y2="62"/><polygon fill="#181818" points="848.5,58,858.5,62,848.5,66,852.5,62" style="stroke:#181818;stroke-width:1.0;"/><line style="stroke:#181818;stroke-width:1.0;" x1="580.5" x2="580.5" y1="388.3711" y2="408.3711"/><polygon fill="#181818" points="576.5,398.3711,580.5,408.3711,584.5,398.3711,580.5,402.3711" style="stroke:#181818;stroke-width:1.0;"/><line style="stroke:#181818;stroke-width:1.0;" x1="580.5" x2="580.5" y1="30" y2="50"/><polygon fill="#181818" points="576.5,40,580.5,50,584.5,40,580.5,44" style="stroke:#181818;stroke-width:1.0;"/><!--SRC=[lP8nRiCm34LtduAZi-G0JNiMGhLeIu1C1Y8T83bzP0Kg6jVDc8sK_lzw5AZcidLnX7vOSYOszCxeE0jRWCyl86UH9rHoAepr68dz0ImGGtybFNG0gt- -ua0f7IqJhKuBcJH8ycY29MPZUPY2KsJ1JDEIoal2VrG07rvWbWkTQaz92NgMThkci1X4BIbwfi769UsaF4EsOJNU2Ym4oXxdoBNVDMynzb2QgWoBwo_yKhAFO_UVwmNObEJRfRUX_TIjUixP9ZnKJMCmPNShsm9rJIgXcfoxAhi3]--></g></svg>