<?xml version="1.0" encoding="us-ascii" standalone="no"?><svg xmlns="http://www.w3.org/2000/svg" xmlns:xlink="http://www.w3.org/1999/xlink" contentStyleType="text/css" height="220px" preserveAspectRatio="none" style="width:996px;height:220px;background:#FFFFFF;" version="1.1" viewBox="0 0 996 220" width="996px" zoomAndPan="magnify"><defs/><g><!--cluster Pasture Cell--><g id="cluster_Pasture Cell"><path d="M8.5,6 L106.5,6 A3.75,3.75 0 0 1 109,8.5 L116,28.2969 L986.5,28.2969 A2.5,2.5 0 0 1 989,30.7969 L989,210.5 A2.5,2.5 0 0 1 986.5,213 L8.5,213 A2.5,2.5 0 0 1 6,210.5 L6,8.5 A2.5,2.5 0 0 1 8.5,6 " fill="none" style="stroke:#000000;stroke-width:1.5;"/><line style="stroke:#000000;stroke-width:1.5;" x1="6" x2="116" y1="28.2969" y2="28.2969"/><text fill="#000000" font-family="sans-serif" font-size="14" font-weight="bold" lengthAdjust="spacing" textLength="97" x="10" y="20.9951">Pasture Cell</text></g><!--class ShepherdN--><g id="elem_ShepherdN"><rect codeLine="10" fill="#F1F1F1" height="48" id="ShepherdN" rx="2.5" ry="2.5" style="stroke:#181818;stroke-width:0.5;" width="112" x="764" y="41"/><ellipse cx="779" cy="57" fill="#ADD1B2" rx="11" ry="11" style="stroke:#181818;stroke-width:1.0;"/><path d="M781.3438,52.6719 C780.4063,52.2344 779.8125,52.0938 778.9375,52.0938 C776.3125,52.0938 774.3125,54.1719 774.3125,56.8906 L774.3125,58.0156 C774.3125,60.5938 776.4219,62.4844 779.3125,62.4844 C780.5313,62.4844 781.6875,62.1875 782.4375,61.6406 C783.0156,61.2344 783.3438,60.7813 783.3438,60.3906 C783.3438,59.9375 782.9531,59.5469 782.4844,59.5469 C782.2656,59.5469 782.0625,59.625 781.875,59.8125 C781.4219,60.2969 781.4219,60.2969 781.2344,60.3906 C780.8125,60.6563 780.125,60.7813 779.3594,60.7813 C777.3125,60.7813 776.0156,59.6875 776.0156,57.9844 L776.0156,56.8906 C776.0156,55.1094 777.2656,53.7969 779,53.7969 C779.5781,53.7969 780.1875,53.9531 780.6563,54.2031 C781.1406,54.4844 781.3125,54.7031 781.4063,55.1094 C781.4688,55.5156 781.5,55.6406 781.6406,55.7656 C781.7813,55.9063 782.0156,56.0156 782.2344,56.0156 C782.5,56.0156 782.7656,55.875 782.9375,55.6563 C783.0469,55.5 783.0781,55.3125 783.0781,54.8906 L783.0781,53.4688 C783.0781,53.0313 783.0625,52.9063 782.9688,52.75 C782.8125,52.4844 782.5313,52.3438 782.2344,52.3438 C781.9375,52.3438 781.7344,52.4375 781.5156,52.75 L781.3438,52.6719 Z " fill="#000000"/><text fill="#000000" font-family="sans-serif" font-size="14" lengthAdjust="spacing" textLength="80" x="793" y="61.8467">ShepherdN</text><line style="stroke:#181818;stroke-width:0.5;" x1="765" x2="875" y1="73" y2="73"/><line style="stroke:#181818;stroke-width:0.5;" x1="765" x2="875" y1="81" y2="81"/></g><g id="elem_GMN4"><path d="M693,52.5 L693,77.6328 A0,0 0 0 0 693,77.6328 L729,77.6328 A0,0 0 0 0 729,77.6328 L729,70.5 L763.672,65 L729,62.5 L729,62.5 L719,52.5 L693,52.5 A0,0 0 0 0 693,52.5 " fill="#FFFFFF" style="stroke:none;stroke-width:0.5;"/><path d="M719,52.5 L719,62.5 L729,62.5 L719,52.5 " fill="#FFFFFF" style="stroke:none;stroke-width:0.5;"/><text fill="#000000" font-family="sans-serif" font-size="13" font-weight="bold" lengthAdjust="spacing" textLength="15" x="699" y="69.5669">...</text></g><!--class Shepherd2--><g id="elem_Shepherd2"><rect codeLine="15" fill="#F1F1F1" height="48" id="Shepherd2" rx="2.5" ry="2.5" style="stroke:#181818;stroke-width:0.5;" width="110" x="393" y="41"/><ellipse cx="408" cy="57" fill="#ADD1B2" rx="11" ry="11" style="stroke:#181818;stroke-width:1.0;"/><path d="M410.3438,52.6719 C409.4063,52.2344 408.8125,52.0938 407.9375,52.0938 C405.3125,52.0938 403.3125,54.1719 403.3125,56.8906 L403.3125,58.0156 C403.3125,60.5938 405.4219,62.4844 408.3125,62.4844 C409.5313,62.4844 410.6875,62.1875 411.4375,61.6406 C412.0156,61.2344 412.3438,60.7813 412.3438,60.3906 C412.3438,59.9375 411.9531,59.5469 411.4844,59.5469 C411.2656,59.5469 411.0625,59.625 410.875,59.8125 C410.4219,60.2969 410.4219,60.2969 410.2344,60.3906 C409.8125,60.6563 409.125,60.7813 408.3594,60.7813 C406.3125,60.7813 405.0156,59.6875 405.0156,57.9844 L405.0156,56.8906 C405.0156,55.1094 406.2656,53.7969 408,53.7969 C408.5781,53.7969 409.1875,53.9531 409.6563,54.2031 C410.1406,54.4844 410.3125,54.7031 410.4063,55.1094 C410.4688,55.5156 410.5,55.6406 410.6406,55.7656 C410.7813,55.9063 411.0156,56.0156 411.2344,56.0156 C411.5,56.0156 411.7656,55.875 411.9375,55.6563 C412.0469,55.5 412.0781,55.3125 412.0781,54.8906 L412.0781,53.4688 C412.0781,53.0313 412.0625,52.9063 411.9688,52.75 C411.8125,52.4844 411.5313,52.3438 411.2344,52.3438 C410.9375,52.3438 410.7344,52.4375 410.5156,52.75 L410.3438,52.6719 Z " fill="#000000"/><text fill="#000000" font-family="sans-serif" font-size="14" lengthAdjust="spacing" textLength="78" x="422" y="61.8467">Shepherd2</text><line style="stroke:#181818;stroke-width:0.5;" x1="394" x2="502" y1="73" y2="73"/><line style="stroke:#181818;stroke-width:0.5;" x1="394" x2="502" y1="81" y2="81"/></g><!--class Shepherd1--><g id="elem_Shepherd1"><rect codeLine="17" fill="#F1F1F1" height="48" id="Shepherd1" rx="2.5" ry="2.5" style="stroke:#181818;stroke-width:0.5;" width="111" x="160.5" y="41"/><ellipse cx="175.5" cy="57" fill="#ADD1B2" rx="11" ry="11" style="stroke:#181818;stroke-width:1.0;"/><path d="M177.8438,52.6719 C176.9063,52.2344 176.3125,52.0938 175.4375,52.0938 C172.8125,52.0938 170.8125,54.1719 170.8125,56.8906 L170.8125,58.0156 C170.8125,60.5938 172.9219,62.4844 175.8125,62.4844 C177.0313,62.4844 178.1875,62.1875 178.9375,61.6406 C179.5156,61.2344 179.8438,60.7813 179.8438,60.3906 C179.8438,59.9375 179.4531,59.5469 178.9844,59.5469 C178.7656,59.5469 178.5625,59.625 178.375,59.8125 C177.9219,60.2969 177.9219,60.2969 177.7344,60.3906 C177.3125,60.6563 176.625,60.7813 175.8594,60.7813 C173.8125,60.7813 172.5156,59.6875 172.5156,57.9844 L172.5156,56.8906 C172.5156,55.1094 173.7656,53.7969 175.5,53.7969 C176.0781,53.7969 176.6875,53.9531 177.1563,54.2031 C177.6406,54.4844 177.8125,54.7031 177.9063,55.1094 C177.9688,55.5156 178,55.6406 178.1406,55.7656 C178.2813,55.9063 178.5156,56.0156 178.7344,56.0156 C179,56.0156 179.2656,55.875 179.4375,55.6563 C179.5469,55.5 179.5781,55.3125 179.5781,54.8906 L179.5781,53.4688 C179.5781,53.0313 179.5625,52.9063 179.4688,52.75 C179.3125,52.4844 179.0313,52.3438 178.7344,52.3438 C178.4375,52.3438 178.2344,52.4375 178.0156,52.75 L177.8438,52.6719 Z " fill="#000000"/><text fill="#000000" font-family="sans-serif" font-size="14" lengthAdjust="spacing" textLength="79" x="189.5" y="61.8467">Shepherd1</text><line style="stroke:#181818;stroke-width:0.5;" x1="161.5" x2="270.5" y1="73" y2="73"/><line style="stroke:#181818;stroke-width:0.5;" x1="161.5" x2="270.5" y1="81" y2="81"/></g><!--class Goat1_1--><g id="elem_Goat1_1"><rect codeLine="22" fill="#F1F1F1" height="48" id="Goat1_1" rx="2.5" ry="2.5" style="stroke:#181818;stroke-width:0.5;" width="92" x="22" y="149"/><ellipse cx="37" cy="165" fill="#ADD1B2" rx="11" ry="11" style="stroke:#181818;stroke-width:1.0;"/><path d="M39.3438,160.6719 C38.4063,160.2344 37.8125,160.0938 36.9375,160.0938 C34.3125,160.0938 32.3125,162.1719 32.3125,164.8906 L32.3125,166.0156 C32.3125,168.5938 34.4219,170.4844 37.3125,170.4844 C38.5313,170.4844 39.6875,170.1875 40.4375,169.6406 C41.0156,169.2344 41.3438,168.7813 41.3438,168.3906 C41.3438,167.9375 40.9531,167.5469 40.4844,167.5469 C40.2656,167.5469 40.0625,167.625 39.875,167.8125 C39.4219,168.2969 39.4219,168.2969 39.2344,168.3906 C38.8125,168.6563 38.125,168.7813 37.3594,168.7813 C35.3125,168.7813 34.0156,167.6875 34.0156,165.9844 L34.0156,164.8906 C34.0156,163.1094 35.2656,161.7969 37,161.7969 C37.5781,161.7969 38.1875,161.9531 38.6563,162.2031 C39.1406,162.4844 39.3125,162.7031 39.4063,163.1094 C39.4688,163.5156 39.5,163.6406 39.6406,163.7656 C39.7813,163.9063 40.0156,164.0156 40.2344,164.0156 C40.5,164.0156 40.7656,163.875 40.9375,163.6563 C41.0469,163.5 41.0781,163.3125 41.0781,162.8906 L41.0781,161.4688 C41.0781,161.0313 41.0625,160.9063 40.9688,160.75 C40.8125,160.4844 40.5313,160.3438 40.2344,160.3438 C39.9375,160.3438 39.7344,160.4375 39.5156,160.75 L39.3438,160.6719 Z " fill="#000000"/><text fill="#000000" font-family="sans-serif" font-size="14" lengthAdjust="spacing" textLength="60" x="51" y="169.8467">Goat1_1</text><line style="stroke:#181818;stroke-width:0.5;" x1="23" x2="113" y1="181" y2="181"/><line style="stroke:#181818;stroke-width:0.5;" x1="23" x2="113" y1="189" y2="189"/></g><!--class Goat1_M--><g id="elem_Goat1_M"><rect codeLine="24" fill="#F1F1F1" height="48" id="Goat1_M" rx="2.5" ry="2.5" style="stroke:#181818;stroke-width:0.5;" width="95" x="220.5" y="149"/><ellipse cx="235.5" cy="165" fill="#ADD1B2" rx="11" ry="11" style="stroke:#181818;stroke-width:1.0;"/><path d="M237.8438,160.6719 C236.9063,160.2344 236.3125,160.0938 235.4375,160.0938 C232.8125,160.0938 230.8125,162.1719 230.8125,164.8906 L230.8125,166.0156 C230.8125,168.5938 232.9219,170.4844 235.8125,170.4844 C237.0313,170.4844 238.1875,170.1875 238.9375,169.6406 C239.5156,169.2344 239.8438,168.7813 239.8438,168.3906 C239.8438,167.9375 239.4531,167.5469 238.9844,167.5469 C238.7656,167.5469 238.5625,167.625 238.375,167.8125 C237.9219,168.2969 237.9219,168.2969 237.7344,168.3906 C237.3125,168.6563 236.625,168.7813 235.8594,168.7813 C233.8125,168.7813 232.5156,167.6875 232.5156,165.9844 L232.5156,164.8906 C232.5156,163.1094 233.7656,161.7969 235.5,161.7969 C236.0781,161.7969 236.6875,161.9531 237.1563,162.2031 C237.6406,162.4844 237.8125,162.7031 237.9063,163.1094 C237.9688,163.5156 238,163.6406 238.1406,163.7656 C238.2813,163.9063 238.5156,164.0156 238.7344,164.0156 C239,164.0156 239.2656,163.875 239.4375,163.6563 C239.5469,163.5 239.5781,163.3125 239.5781,162.8906 L239.5781,161.4688 C239.5781,161.0313 239.5625,160.9063 239.4688,160.75 C239.3125,160.4844 239.0313,160.3438 238.7344,160.3438 C238.4375,160.3438 238.2344,160.4375 238.0156,160.75 L237.8438,160.6719 Z " fill="#000000"/><text fill="#000000" font-family="sans-serif" font-size="14" lengthAdjust="spacing" textLength="63" x="249.5" y="169.8467">Goat1_M</text><line style="stroke:#181818;stroke-width:0.5;" x1="221.5" x2="314.5" y1="181" y2="181"/><line style="stroke:#181818;stroke-width:0.5;" x1="221.5" x2="314.5" y1="189" y2="189"/></g><!--class Goat2_1--><g id="elem_Goat2_1"><rect codeLine="26" fill="#F1F1F1" height="48" id="Goat2_1" rx="2.5" ry="2.5" style="stroke:#181818;stroke-width:0.5;" width="91" x="350.5" y="149"/><ellipse cx="365.5" cy="165" fill="#ADD1B2" rx="11" ry="11" style="stroke:#181818;stroke-width:1.0;"/><path d="M367.8438,160.6719 C366.9063,160.2344 366.3125,160.0938 365.4375,160.0938 C362.8125,160.0938 360.8125,162.1719 360.8125,164.8906 L360.8125,166.0156 C360.8125,168.5938 362.9219,170.4844 365.8125,170.4844 C367.0313,170.4844 368.1875,170.1875 368.9375,169.6406 C369.5156,169.2344 369.8438,168.7813 369.8438,168.3906 C369.8438,167.9375 369.4531,167.5469 368.9844,167.5469 C368.7656,167.5469 368.5625,167.625 368.375,167.8125 C367.9219,168.2969 367.9219,168.2969 367.7344,168.3906 C367.3125,168.6563 366.625,168.7813 365.8594,168.7813 C363.8125,168.7813 362.5156,167.6875 362.5156,165.9844 L362.5156,164.8906 C362.5156,163.1094 363.7656,161.7969 365.5,161.7969 C366.0781,161.7969 366.6875,161.9531 367.1563,162.2031 C367.6406,162.4844 367.8125,162.7031 367.9063,163.1094 C367.9688,163.5156 368,163.6406 368.1406,163.7656 C368.2813,163.9063 368.5156,164.0156 368.7344,164.0156 C369,164.0156 369.2656,163.875 369.4375,163.6563 C369.5469,163.5 369.5781,163.3125 369.5781,162.8906 L369.5781,161.4688 C369.5781,161.0313 369.5625,160.9063 369.4688,160.75 C369.3125,160.4844 369.0313,160.3438 368.7344,160.3438 C368.4375,160.3438 368.2344,160.4375 368.0156,160.75 L367.8438,160.6719 Z " fill="#000000"/><text fill="#000000" font-family="sans-serif" font-size="14" lengthAdjust="spacing" textLength="59" x="379.5" y="169.8467">Goat2_1</text><line style="stroke:#181818;stroke-width:0.5;" x1="351.5" x2="440.5" y1="181" y2="181"/><line style="stroke:#181818;stroke-width:0.5;" x1="351.5" x2="440.5" y1="189" y2="189"/></g><!--class Goat2_M--><g id="elem_Goat2_M"><rect codeLine="28" fill="#F1F1F1" height="48" id="Goat2_M" rx="2.5" ry="2.5" style="stroke:#181818;stroke-width:0.5;" width="94" x="548" y="149"/><ellipse cx="563" cy="165" fill="#ADD1B2" rx="11" ry="11" style="stroke:#181818;stroke-width:1.0;"/><path d="M565.3438,160.6719 C564.4063,160.2344 563.8125,160.0938 562.9375,160.0938 C560.3125,160.0938 558.3125,162.1719 558.3125,164.8906 L558.3125,166.0156 C558.3125,168.5938 560.4219,170.4844 563.3125,170.4844 C564.5313,170.4844 565.6875,170.1875 566.4375,169.6406 C567.0156,169.2344 567.3438,168.7813 567.3438,168.3906 C567.3438,167.9375 566.9531,167.5469 566.4844,167.5469 C566.2656,167.5469 566.0625,167.625 565.875,167.8125 C565.4219,168.2969 565.4219,168.2969 565.2344,168.3906 C564.8125,168.6563 564.125,168.7813 563.3594,168.7813 C561.3125,168.7813 560.0156,167.6875 560.0156,165.9844 L560.0156,164.8906 C560.0156,163.1094 561.2656,161.7969 563,161.7969 C563.5781,161.7969 564.1875,161.9531 564.6563,162.2031 C565.1406,162.4844 565.3125,162.7031 565.4063,163.1094 C565.4688,163.5156 565.5,163.6406 565.6406,163.7656 C565.7813,163.9063 566.0156,164.0156 566.2344,164.0156 C566.5,164.0156 566.7656,163.875 566.9375,163.6563 C567.0469,163.5 567.0781,163.3125 567.0781,162.8906 L567.0781,161.4688 C567.0781,161.0313 567.0625,160.9063 566.9688,160.75 C566.8125,160.4844 566.5313,160.3438 566.2344,160.3438 C565.9375,160.3438 565.7344,160.4375 565.5156,160.75 L565.3438,160.6719 Z " fill="#000000"/><text fill="#000000" font-family="sans-serif" font-size="14" lengthAdjust="spacing" textLength="62" x="577" y="169.8467">Goat2_M</text><line style="stroke:#181818;stroke-width:0.5;" x1="549" x2="641" y1="181" y2="181"/><line style="stroke:#181818;stroke-width:0.5;" x1="549" x2="641" y1="189" y2="189"/></g><!--class GoatN_1--><g id="elem_GoatN_1"><rect codeLine="30" fill="#F1F1F1" height="48" id="GoatN_1" rx="2.5" ry="2.5" style="stroke:#181818;stroke-width:0.5;" width="93" x="677.5" y="149"/><ellipse cx="692.5" cy="165" fill="#ADD1B2" rx="11" ry="11" style="stroke:#181818;stroke-width:1.0;"/><path d="M694.8438,160.6719 C693.9063,160.2344 693.3125,160.0938 692.4375,160.0938 C689.8125,160.0938 687.8125,162.1719 687.8125,164.8906 L687.8125,166.0156 C687.8125,168.5938 689.9219,170.4844 692.8125,170.4844 C694.0313,170.4844 695.1875,170.1875 695.9375,169.6406 C696.5156,169.2344 696.8438,168.7813 696.8438,168.3906 C696.8438,167.9375 696.4531,167.5469 695.9844,167.5469 C695.7656,167.5469 695.5625,167.625 695.375,167.8125 C694.9219,168.2969 694.9219,168.2969 694.7344,168.3906 C694.3125,168.6563 693.625,168.7813 692.8594,168.7813 C690.8125,168.7813 689.5156,167.6875 689.5156,165.9844 L689.5156,164.8906 C689.5156,163.1094 690.7656,161.7969 692.5,161.7969 C693.0781,161.7969 693.6875,161.9531 694.1563,162.2031 C694.6406,162.4844 694.8125,162.7031 694.9063,163.1094 C694.9688,163.5156 695,163.6406 695.1406,163.7656 C695.2813,163.9063 695.5156,164.0156 695.7344,164.0156 C696,164.0156 696.2656,163.875 696.4375,163.6563 C696.5469,163.5 696.5781,163.3125 696.5781,162.8906 L696.5781,161.4688 C696.5781,161.0313 696.5625,160.9063 696.4688,160.75 C696.3125,160.4844 696.0313,160.3438 695.7344,160.3438 C695.4375,160.3438 695.2344,160.4375 695.0156,160.75 L694.8438,160.6719 Z " fill="#000000"/><text fill="#000000" font-family="sans-serif" font-size="14" lengthAdjust="spacing" textLength="61" x="706.5" y="169.8467">GoatN_1</text><line style="stroke:#181818;stroke-width:0.5;" x1="678.5" x2="769.5" y1="181" y2="181"/><line style="stroke:#181818;stroke-width:0.5;" x1="678.5" x2="769.5" y1="189" y2="189"/></g><!--class GoatN_M--><g id="elem_GoatN_M"><rect codeLine="32" fill="#F1F1F1" height="48" id="GoatN_M" rx="2.5" ry="2.5" style="stroke:#181818;stroke-width:0.5;" width="96" x="877" y="149"/><ellipse cx="892" cy="165" fill="#ADD1B2" rx="11" ry="11" style="stroke:#181818;stroke-width:1.0;"/><path d="M894.3438,160.6719 C893.4063,160.2344 892.8125,160.0938 891.9375,160.0938 C889.3125,160.0938 887.3125,162.1719 887.3125,164.8906 L887.3125,166.0156 C887.3125,168.5938 889.4219,170.4844 892.3125,170.4844 C893.5313,170.4844 894.6875,170.1875 895.4375,169.6406 C896.0156,169.2344 896.3438,168.7813 896.3438,168.3906 C896.3438,167.9375 895.9531,167.5469 895.4844,167.5469 C895.2656,167.5469 895.0625,167.625 894.875,167.8125 C894.4219,168.2969 894.4219,168.2969 894.2344,168.3906 C893.8125,168.6563 893.125,168.7813 892.3594,168.7813 C890.3125,168.7813 889.0156,167.6875 889.0156,165.9844 L889.0156,164.8906 C889.0156,163.1094 890.2656,161.7969 892,161.7969 C892.5781,161.7969 893.1875,161.9531 893.6563,162.2031 C894.1406,162.4844 894.3125,162.7031 894.4063,163.1094 C894.4688,163.5156 894.5,163.6406 894.6406,163.7656 C894.7813,163.9063 895.0156,164.0156 895.2344,164.0156 C895.5,164.0156 895.7656,163.875 895.9375,163.6563 C896.0469,163.5 896.0781,163.3125 896.0781,162.8906 L896.0781,161.4688 C896.0781,161.0313 896.0625,160.9063 895.9688,160.75 C895.8125,160.4844 895.5313,160.3438 895.2344,160.3438 C894.9375,160.3438 894.7344,160.4375 894.5156,160.75 L894.3438,160.6719 Z " fill="#000000"/><text fill="#000000" font-family="sans-serif" font-size="14" lengthAdjust="spacing" textLength="64" x="906" y="169.8467">GoatN_M</text><line style="stroke:#181818;stroke-width:0.5;" x1="878" x2="972" y1="181" y2="181"/><line style="stroke:#181818;stroke-width:0.5;" x1="878" x2="972" y1="189" y2="189"/></g><g id="elem_GMN16"><path d="M149,160.5 L149,169 L114.02,173 L149,177 L149,185.6328 A0,0 0 0 0 149,185.6328 L185,185.6328 A0,0 0 0 0 185,185.6328 L185,170.5 L175,160.5 L149,160.5 A0,0 0 0 0 149,160.5 " fill="#FFFFFF" style="stroke:none;stroke-width:0.5;"/><path d="M175,160.5 L175,170.5 L185,170.5 L175,160.5 " fill="#FFFFFF" style="stroke:none;stroke-width:0.5;"/><text fill="#000000" font-family="sans-serif" font-size="13" font-weight="bold" lengthAdjust="spacing" textLength="15" x="155" y="177.5669">...</text></g><g id="elem_GMN21"><path d="M477,160.5 L477,169 L441.633,173 L477,177 L477,185.6328 A0,0 0 0 0 477,185.6328 L513,185.6328 A0,0 0 0 0 513,185.6328 L513,170.5 L503,160.5 L477,160.5 A0,0 0 0 0 477,160.5 " fill="#FFFFFF" style="stroke:none;stroke-width:0.5;"/><path d="M503,160.5 L503,170.5 L513,170.5 L503,160.5 " fill="#FFFFFF" style="stroke:none;stroke-width:0.5;"/><text fill="#000000" font-family="sans-serif" font-size="13" font-weight="bold" lengthAdjust="spacing" textLength="15" x="483" y="177.5669">...</text></g><g id="elem_GMN26"><path d="M806,160.5 L806,169 L770.875,173 L806,177 L806,185.6328 A0,0 0 0 0 806,185.6328 L842,185.6328 A0,0 0 0 0 842,185.6328 L842,170.5 L832,160.5 L806,160.5 A0,0 0 0 0 806,160.5 " fill="#FFFFFF" style="stroke:none;stroke-width:0.5;"/><path d="M832,160.5 L832,170.5 L842,170.5 L832,160.5 " fill="#FFFFFF" style="stroke:none;stroke-width:0.5;"/><text fill="#000000" font-family="sans-serif" font-size="13" font-weight="bold" lengthAdjust="spacing" textLength="15" x="812" y="177.5669">...</text></g><!--link Shepherd1 to Goat1_1--><g id="link_Shepherd1_Goat1_1"><path codeLine="35" d="M183.886,89 C159.147,106.719 125.094,131.1083 100.306,148.8617 " fill="none" id="Shepherd1-Goat1_1" style="stroke:#181818;stroke-width:1.0;"/></g><!--link Shepherd1 to Goat1_M--><g id="link_Shepherd1_Goat1_M"><path codeLine="39" d="M227.283,89 C235.946,106.658 247.858,130.9408 256.559,148.6784 " fill="none" id="Shepherd1-Goat1_M" style="stroke:#181818;stroke-width:1.0;"/></g><!--link Shepherd2 to Goat2_1--><g id="link_Shepherd2_Goat2_1"><path codeLine="40" d="M436.717,89 C428.054,106.658 416.142,130.9408 407.441,148.6784 " fill="none" id="Shepherd2-Goat2_1" style="stroke:#181818;stroke-width:1.0;"/></g><!--link Shepherd2 to Goat2_M--><g id="link_Shepherd2_Goat2_M"><path codeLine="44" d="M479.897,89 C504.469,106.719 538.292,131.1083 562.912,148.8617 " fill="none" id="Shepherd2-Goat2_M" style="stroke:#181818;stroke-width:1.0;"/></g><!--link ShepherdN to GoatN_1--><g id="link_ShepherdN_GoatN_1"><path codeLine="45" d="M799.169,89 C783.177,106.658 761.186,130.9408 745.121,148.6784 " fill="none" id="ShepherdN-GoatN_1" style="stroke:#181818;stroke-width:1.0;"/></g><!--link ShepherdN to GoatN_M--><g id="link_ShepherdN_GoatN_M"><path codeLine="49" d="M842.783,89 C860.275,106.658 884.328,130.9408 901.898,148.6784 " fill="none" id="ShepherdN-GoatN_M" style="stroke:#181818;stroke-width:1.0;"/></g><!--SRC=[XOyz2y8m48Rt-nN1tKexYuC5dHe41qU9zlg1CIcNE4d_kp7HjjgYMGBFlJnthxdKgX4ahanfY-mEpBsrfXmfrL8JioIKSGbKDip4-LAIlgayp0zLRT5FDbhPmDRIXQ05QDmlIcIpdJ3sHiXIb7BcjW2SfJ26xIjiAgISEzQ2Fq5YOPak-f6JBq-hA8gMYzCAKEN-r2z1uWMVBFQisxNLmiR7U10C9FiYoIYJZ39ybE6l3FJRv_DkPwX6TLdvRXsUhZQXoA1l-eBkpWdja_ws3WIzbRyXdxJolzQ180De7m00]--></g></svg>